<svg version="1.1" id="Layer_1" xmlns="http://www.w3.org/2000/svg" xmlns:xlink="http://www.w3.org/1999/xlink" x="0px" y="0px"
	 width="100%" viewBox="0 0 200 200" enable-background="new 0 0 200 200" xml:space="preserve">
<path fill="#FEFEFE" opacity="1.000000" stroke="none" 
	d="
M87.000000,201.000000 
	C58.000000,201.000000 29.500004,201.000000 1.000004,201.000000 
	C1.000003,134.333344 1.000003,67.666679 1.000001,1.000013 
	C67.666656,1.000009 134.333313,1.000009 200.999969,1.000004 
	C200.999985,67.666649 200.999985,134.333298 201.000000,200.999969 
	C163.166672,201.000000 125.333336,201.000000 87.000000,201.000000 
M151.301025,113.010910 
	C151.301025,113.010910 151.457169,113.359039 151.887543,113.033531 
	C151.909836,112.693565 151.932129,112.353600 152.220047,111.460075 
	C152.505188,110.974106 152.790314,110.488129 153.309540,109.601173 
	C153.309540,109.601173 153.393097,109.144440 153.883163,108.939690 
	C153.938171,108.623665 153.993195,108.307640 154.229462,107.309433 
	C154.136337,106.333443 154.043198,105.357452 153.950073,104.381462 
	C153.068619,104.523781 151.956024,104.383286 151.357864,104.872192 
	C150.367645,105.681549 149.708817,106.896355 148.997269,107.979042 
	C148.997269,107.979042 148.935379,107.906769 148.427597,108.129784 
	C148.108994,108.579720 147.790390,109.029648 147.512146,109.575836 
	C147.512146,109.575836 147.409180,109.558777 146.914017,109.898392 
	C146.178192,110.846626 145.442368,111.794861 144.835907,112.819221 
	C144.835907,112.819221 144.770248,112.684250 144.284149,112.823387 
	C143.984085,113.218269 143.684021,113.613159 142.930191,114.411316 
	C142.949112,114.612785 142.968033,114.814262 142.697449,115.435860 
	C142.380615,116.225540 142.063766,117.015221 141.057983,118.246407 
	C135.102844,122.967964 129.199783,127.757408 123.170013,132.381653 
	C120.272339,134.603882 117.221176,136.657196 114.088531,138.535156 
	C108.007339,142.180710 104.922546,140.489777 104.963097,133.552429 
	C104.979546,130.739212 105.117874,127.859581 105.728294,125.128075 
	C109.165939,109.745087 115.838806,95.981300 126.694786,84.400711 
	C129.438385,81.473999 131.046478,77.836769 128.769821,74.469719 
	C127.003616,71.857597 123.791237,69.073631 120.910995,68.688309 
	C118.039696,68.304176 114.781502,70.812012 110.940491,72.353951 
	C105.070038,67.792564 97.380333,67.947189 89.507538,69.525673 
	C73.009285,72.833565 60.341705,82.910912 48.138828,93.522324 
	C38.551949,101.858925 29.814348,111.063599 25.087435,123.259781 
	C20.885525,134.101364 24.579784,144.386673 34.700764,150.177704 
	C43.241558,155.064606 52.046303,154.951218 59.528412,148.991730 
	C67.929520,142.300278 75.304359,134.317581 83.091232,126.860664 
	C84.273552,125.728439 85.269402,124.401497 86.978432,122.448013 
	C86.978432,127.398537 86.595779,131.112823 87.087364,134.707565 
	C87.567299,138.217072 88.940048,141.604492 89.954529,145.584610 
	C90.193779,145.832977 90.433029,146.081329 90.812561,146.114349 
	C90.812561,146.114349 90.623169,146.288086 90.765762,146.859940 
	C91.162094,147.262787 91.558434,147.665649 91.995941,148.007339 
	C91.995941,148.007339 91.927330,148.034317 92.047997,148.561996 
	C92.339699,148.753860 92.631401,148.945709 92.952339,149.051529 
	C92.952339,149.051529 92.865219,149.077316 93.024933,149.596786 
	C93.337456,149.757675 93.649971,149.918549 93.990829,150.005768 
	C93.990829,150.005768 93.927193,150.052460 94.257805,150.679718 
	C98.956551,153.999878 103.972900,154.458649 109.035164,152.331390 
	C109.035164,152.331390 109.266869,152.393631 109.960640,152.341583 
	C111.409660,151.697311 112.858688,151.053055 113.991570,150.207718 
	C113.991570,150.207718 114.306549,150.422501 114.957863,150.296036 
	C115.492432,149.936737 116.027000,149.577454 116.837463,149.224442 
	C116.837463,149.224442 116.986946,148.992477 117.616547,148.935471 
	C118.434845,148.306580 119.253136,147.677689 120.015884,147.000351 
	C120.015884,147.000351 120.032234,147.072220 120.649094,146.972015 
	C121.435783,146.318481 122.222481,145.664948 123.000000,145.000000 
	C123.000000,145.000000 123.010422,145.010559 123.541351,144.942352 
	C123.747139,144.663559 123.952927,144.384781 124.067955,144.056686 
	C124.067955,144.056686 124.097038,144.155792 124.632423,144.038223 
	C124.834221,143.749878 125.036018,143.461533 125.129784,143.134857 
	C125.129784,143.134857 125.173637,143.240784 125.685799,143.112259 
	C125.908501,142.856659 126.131203,142.601059 126.072113,142.160934 
	C126.072113,142.160934 126.323006,142.385666 126.859009,142.212158 
	C127.230927,141.806061 127.602844,141.399963 128.461044,140.863419 
	C128.648407,140.594604 128.835754,140.325806 129.542328,139.924393 
	C129.727951,139.633377 129.913559,139.342361 130.021942,139.019150 
	C130.021942,139.019150 130.052124,139.097214 130.569077,138.949158 
	C130.746170,138.649139 130.923264,138.349136 131.023666,138.021194 
	C131.023666,138.021194 131.049530,138.098618 131.574402,137.946716 
	C131.756958,137.643631 131.939529,137.340561 132.567932,136.885422 
	C132.852783,136.699020 133.006699,136.436005 133.535538,135.917435 
	C133.704300,135.614517 133.873077,135.311600 134.574478,134.767334 
	C135.039124,134.155884 135.503784,133.544449 136.487885,132.716125 
	C136.788666,132.252777 137.089462,131.789429 137.171478,131.134979 
	C137.171478,131.134979 137.345001,131.367950 137.910217,131.087433 
	C138.660721,130.088608 139.411224,129.089783 140.052887,128.045212 
	C140.052887,128.045212 140.120041,128.142303 140.670959,127.915108 
	C141.266693,127.136475 141.862427,126.357841 142.494797,125.469170 
	C142.494797,125.469170 142.594711,125.410271 143.109955,125.026527 
	C143.813614,123.729988 144.517288,122.433449 145.813675,120.813889 
	C147.259003,118.661346 148.704315,116.508804 150.696030,114.198761 
	C150.937912,113.923447 151.179794,113.648132 151.301025,113.010910 
M178.085983,55.322250 
	C166.332672,58.174114 154.579361,61.025982 142.826050,63.877846 
	C142.862534,64.484306 142.899033,65.090767 142.935516,65.697227 
	C145.800781,66.491280 148.666061,67.285332 151.908890,68.184021 
	C149.478653,74.107559 147.226868,79.596115 144.975082,85.084671 
	C146.682999,85.509750 147.273239,85.312035 147.705780,84.933914 
	C157.716858,76.182343 167.730789,67.433617 177.664154,58.594418 
	C178.345322,57.988285 178.400131,56.678249 178.085983,55.322250 
M167.817780,71.385361 
	C165.687500,73.402588 163.557205,75.419815 161.175980,77.674644 
	C163.414963,80.423218 165.764282,83.307243 168.113586,86.191261 
	C168.625931,86.027397 169.138260,85.863525 169.650589,85.699654 
	C169.284409,81.001251 168.918228,76.302849 167.817780,71.385361 
M165.913147,49.129021 
	C165.455597,47.125786 164.998047,45.122555 164.540497,43.119324 
	C164.156174,42.948254 163.771866,42.777180 163.387558,42.606110 
	C161.323975,47.271278 159.260406,51.936447 156.750732,57.610130 
	C160.243546,55.809391 162.796112,54.493404 166.153961,52.762245 
	C166.153961,52.432781 166.153961,51.137966 165.913147,49.129021 
z"/>
<path fill="#0B3286" opacity="1.000000" stroke="none" 
	d="
M133.029663,136.096359 
	C133.006699,136.436005 132.852783,136.699020 132.092712,137.052429 
	C131.428162,137.512482 131.238846,137.805557 131.049530,138.098618 
	C131.049530,138.098618 131.023666,138.021194 130.812469,138.123062 
	C130.418228,138.515701 130.235184,138.806458 130.052124,139.097214 
	C130.052124,139.097214 130.021942,139.019150 129.812256,139.117157 
	C129.409424,139.495773 129.216278,139.776382 129.023132,140.056992 
	C128.835754,140.325806 128.648407,140.594604 127.903152,140.953339 
	C127.004517,141.490723 126.663765,141.938202 126.323006,142.385666 
	C126.323006,142.385666 126.072113,142.160934 125.927200,142.252777 
	C125.579414,142.643341 125.376526,142.942062 125.173637,143.240784 
	C125.173637,143.240784 125.129784,143.134857 124.915237,143.208923 
	C124.499466,143.573914 124.298256,143.864853 124.097046,144.155792 
	C124.097038,144.155792 124.067955,144.056686 123.858673,144.137024 
	C123.436409,144.481750 123.223419,144.746155 123.010422,145.010559 
	C123.010422,145.010559 123.000000,145.000000 122.678383,145.017090 
	C121.581924,145.713516 120.807083,146.392868 120.032242,147.072235 
	C120.032234,147.072220 120.015884,147.000351 119.685944,147.007141 
	C118.566322,147.673447 117.776634,148.332962 116.986946,148.992477 
	C116.986946,148.992477 116.837463,149.224442 116.326538,149.182480 
	C115.312599,149.567841 114.809570,149.995178 114.306549,150.422501 
	C114.306549,150.422501 113.991570,150.207718 113.772827,150.193787 
	C112.125015,150.917786 110.695946,151.655716 109.266876,152.393646 
	C109.266869,152.393631 109.035164,152.331390 108.693161,152.229492 
	C103.543167,151.435883 98.735176,150.744171 93.927193,150.052460 
	C93.927193,150.052460 93.990829,150.005768 93.875793,149.797638 
	C93.462250,149.418777 93.163734,149.248047 92.865219,149.077316 
	C92.865219,149.077316 92.952339,149.051529 92.864563,148.838974 
	C92.493645,148.429047 92.210487,148.231674 91.927330,148.034317 
	C91.927330,148.034317 91.995941,148.007339 91.965385,147.714172 
	C91.497604,147.043350 91.060387,146.665726 90.623169,146.288086 
	C90.623169,146.288086 90.812561,146.114349 90.754837,145.945007 
	C90.438362,145.532272 90.179604,145.288895 89.920853,145.045502 
	C88.940048,141.604492 87.567299,138.217072 87.087364,134.707565 
	C86.595779,131.112823 86.978432,127.398537 86.978432,122.448013 
	C85.269402,124.401497 84.273552,125.728439 83.091232,126.860664 
	C75.304359,134.317581 67.929520,142.300278 59.528412,148.991730 
	C52.046303,154.951218 43.241558,155.064606 34.700764,150.177704 
	C24.579784,144.386673 20.885525,134.101364 25.087435,123.259781 
	C29.814348,111.063599 38.551949,101.858925 48.138828,93.522324 
	C60.341705,82.910912 73.009285,72.833565 89.507538,69.525673 
	C97.380333,67.947189 105.070038,67.792564 110.940491,72.353951 
	C114.781502,70.812012 118.039696,68.304176 120.910995,68.688309 
	C123.791237,69.073631 127.003616,71.857597 128.769821,74.469719 
	C131.046478,77.836769 129.438385,81.473999 126.694786,84.400711 
	C115.838806,95.981300 109.165939,109.745087 105.728294,125.128075 
	C105.117874,127.859581 104.979546,130.739212 104.963097,133.552429 
	C104.922546,140.489777 108.007339,142.180710 114.088531,138.535156 
	C117.221176,136.657196 120.272339,134.603882 123.170013,132.381653 
	C129.199783,127.757408 135.102844,122.967964 141.587555,117.842018 
	C142.407074,116.630333 142.697006,115.823029 142.986954,115.015732 
	C142.968033,114.814262 142.949112,114.612785 143.427963,114.166870 
	C144.207245,113.509705 144.488754,113.096977 144.770248,112.684250 
	C144.770248,112.684250 144.835907,112.819221 145.156891,112.825943 
	C146.121658,111.741364 146.765427,110.650070 147.409180,109.558777 
	C147.409180,109.558777 147.512146,109.575836 147.823120,109.573082 
	C148.401169,109.015808 148.668274,108.461288 148.935379,107.906769 
	C148.935379,107.906769 148.997269,107.979042 149.381897,107.976715 
	C151.193756,107.980133 152.620987,107.985870 154.048218,107.991608 
	C153.993195,108.307640 153.938171,108.623665 153.429626,109.052307 
	C152.860672,109.238098 152.745239,109.311256 152.629807,109.384422 
	C152.778351,109.590332 152.926895,109.796242 153.075439,110.002151 
	C152.790314,110.488129 152.505188,110.974106 151.875061,111.900002 
	C151.505768,112.679634 151.481476,113.019333 151.457169,113.359039 
	C151.457169,113.359039 151.301025,113.010910 151.052643,113.198624 
	C150.586044,113.709648 150.367844,114.032951 150.149628,114.356255 
	C148.704315,116.508804 147.259003,118.661346 145.175552,121.073303 
	C143.889847,122.691902 143.242279,124.051086 142.594711,125.410271 
	C142.594711,125.410271 142.494797,125.469170 142.110428,125.396187 
	C141.190720,126.262909 140.655380,127.202606 140.120041,128.142303 
	C140.120041,128.142303 140.052887,128.045212 139.788147,128.163925 
	C138.797272,129.311066 138.071136,130.339508 137.345001,131.367950 
	C137.345001,131.367950 137.171478,131.134979 136.971527,131.251373 
	C136.503845,131.889511 136.236145,132.411255 135.968445,132.933014 
	C135.503784,133.544449 135.039124,134.155884 134.066162,134.991028 
	C133.381775,135.508606 133.205719,135.802490 133.029663,136.096359 
M56.566669,107.085953 
	C51.911026,113.928574 46.947929,120.589523 42.746151,127.700325 
	C40.985260,130.680328 40.273651,134.583405 40.082832,138.120636 
	C39.755657,144.185501 42.175941,145.615677 47.194195,142.429016 
	C51.091946,139.953888 54.924736,137.140015 58.113884,133.828964 
	C68.420876,123.128052 78.520813,112.221741 88.493759,101.207344 
	C94.220245,94.882851 99.546799,88.196236 105.053391,81.672630 
	C101.082260,80.967743 97.569206,80.896935 94.320572,81.789040 
	C79.213242,85.937668 67.697136,95.632431 56.566669,107.085953 
z"/>
<path fill="#D92F22" opacity="1.000000" stroke="none" 
	d="
M178.416107,55.508907 
	C178.400131,56.678249 178.345322,57.988285 177.664154,58.594418 
	C167.730789,67.433617 157.716858,76.182343 147.705780,84.933914 
	C147.273239,85.312035 146.682999,85.509750 144.975082,85.084671 
	C147.226868,79.596115 149.478653,74.107559 151.908890,68.184021 
	C148.666061,67.285332 145.800781,66.491280 142.935516,65.697227 
	C142.899033,65.090767 142.862534,64.484306 142.826050,63.877846 
	C154.579361,61.025982 166.332672,58.174114 178.416107,55.508907 
z"/>
<path fill="#D03D31" opacity="1.000000" stroke="none" 
	d="
M168.184906,71.494904 
	C168.918228,76.302849 169.284409,81.001251 169.650589,85.699654 
	C169.138260,85.863525 168.625931,86.027397 168.113586,86.191261 
	C165.764282,83.307243 163.414963,80.423218 161.175980,77.674644 
	C163.557205,75.419815 165.687500,73.402588 168.184906,71.494904 
z"/>
<path fill="#C92E25" opacity="1.000000" stroke="none" 
	d="
M166.033554,49.486088 
	C166.153961,51.137966 166.153961,52.432781 166.153961,52.762245 
	C162.796112,54.493404 160.243546,55.809391 156.750732,57.610130 
	C159.260406,51.936447 161.323975,47.271278 163.387558,42.606110 
	C163.771866,42.777180 164.156174,42.948254 164.540497,43.119324 
	C164.998047,45.122555 165.455597,47.125786 166.033554,49.486088 
z"/>
<path fill="#244182" opacity="1.000000" stroke="none" 
	d="
M94.092499,150.366089 
	C98.735176,150.744171 103.543167,151.435883 108.812881,152.237061 
	C103.972900,154.458649 98.956551,153.999878 94.092499,150.366089 
z"/>
<path fill="#153783" opacity="1.000000" stroke="none" 
	d="
M154.138824,107.650520 
	C152.620987,107.985870 151.193756,107.980133 149.338440,107.957367 
	C149.708817,106.896355 150.367645,105.681549 151.357864,104.872192 
	C151.956024,104.383286 153.068619,104.523781 153.950073,104.381462 
	C154.043198,105.357452 154.136337,106.333443 154.138824,107.650520 
z"/>
<path fill="#244182" opacity="1.000000" stroke="none" 
	d="
M142.852325,125.218399 
	C143.242279,124.051086 143.889847,122.691902 144.879181,121.234818 
	C144.517288,122.433449 143.813614,123.729988 142.852325,125.218399 
z"/>
<path fill="#244182" opacity="1.000000" stroke="none" 
	d="
M109.613754,152.367615 
	C110.695946,151.655716 112.125015,150.917786 113.930893,150.294327 
	C112.858688,151.053055 111.409660,151.697311 109.613754,152.367615 
z"/>
<path fill="#153783" opacity="1.000000" stroke="none" 
	d="
M147.161591,109.728584 
	C146.765427,110.650070 146.121658,111.741364 145.092224,112.787880 
	C145.442368,111.794861 146.178192,110.846626 147.161591,109.728584 
z"/>
<path fill="#153783" opacity="1.000000" stroke="none" 
	d="
M142.842194,115.225800 
	C142.697006,115.823029 142.407074,116.630333 141.932037,117.621262 
	C142.063766,117.015221 142.380615,116.225540 142.842194,115.225800 
z"/>
<path fill="#244182" opacity="1.000000" stroke="none" 
	d="
M140.395508,128.028702 
	C140.655380,127.202606 141.190720,126.262909 142.092117,125.451210 
	C141.862427,126.357841 141.266693,127.136475 140.395508,128.028702 
z"/>
<path fill="#244182" opacity="1.000000" stroke="none" 
	d="
M137.627609,131.227692 
	C138.071136,130.339508 138.797272,129.311066 139.842575,128.186798 
	C139.411224,129.089783 138.660721,130.088608 137.627609,131.227692 
z"/>
<path fill="#244182" opacity="1.000000" stroke="none" 
	d="
M117.301743,148.963974 
	C117.776634,148.332962 118.566322,147.673447 119.713722,147.031372 
	C119.253136,147.677689 118.434845,148.306580 117.301743,148.963974 
z"/>
<path fill="#244182" opacity="1.000000" stroke="none" 
	d="
M120.340668,147.022125 
	C120.807083,146.392868 121.581924,145.713516 122.682968,145.022797 
	C122.222481,145.664948 121.435783,146.318481 120.340668,147.022125 
z"/>
<path fill="#244182" opacity="1.000000" stroke="none" 
	d="
M126.591003,142.298920 
	C126.663765,141.938202 127.004517,141.490723 127.660019,141.018570 
	C127.602844,141.399963 127.230927,141.806061 126.591003,142.298920 
z"/>
<path fill="#153783" opacity="1.000000" stroke="none" 
	d="
M148.681488,108.018280 
	C148.668274,108.461288 148.401169,109.015808 147.802948,109.524948 
	C147.790390,109.029648 148.108994,108.579720 148.681488,108.018280 
z"/>
<path fill="#244182" opacity="1.000000" stroke="none" 
	d="
M114.632202,150.359268 
	C114.809570,149.995178 115.312599,149.567841 116.188599,149.179337 
	C116.027000,149.577454 115.492432,149.936737 114.632202,150.359268 
z"/>
<path fill="#244182" opacity="1.000000" stroke="none" 
	d="
M90.694466,146.574005 
	C91.060387,146.665726 91.497604,147.043350 91.944794,147.744751 
	C91.558434,147.665649 91.162094,147.262787 90.694466,146.574005 
z"/>
<path fill="#153783" opacity="1.000000" stroke="none" 
	d="
M144.527191,112.753822 
	C144.488754,113.096977 144.207245,113.509705 143.654846,113.965240 
	C143.684021,113.613159 143.984085,113.218269 144.527191,112.753822 
z"/>
<path fill="#244182" opacity="1.000000" stroke="none" 
	d="
M136.228165,132.824570 
	C136.236145,132.411255 136.503845,131.889511 137.080902,131.346924 
	C137.089462,131.789429 136.788666,132.252777 136.228165,132.824570 
z"/>
<path fill="#244182" opacity="1.000000" stroke="none" 
	d="
M129.282730,139.990692 
	C129.216278,139.776382 129.409424,139.495773 129.850876,139.133270 
	C129.913559,139.342361 129.727951,139.633377 129.282730,139.990692 
z"/>
<path fill="#244182" opacity="1.000000" stroke="none" 
	d="
M130.310608,139.023193 
	C130.235184,138.806458 130.418228,138.515701 130.850815,138.137024 
	C130.923264,138.349136 130.746170,138.649139 130.310608,139.023193 
z"/>
<path fill="#244182" opacity="1.000000" stroke="none" 
	d="
M125.429718,143.176514 
	C125.376526,142.942062 125.579414,142.643341 126.068100,142.345032 
	C126.131203,142.601059 125.908501,142.856659 125.429718,143.176514 
z"/>
<path fill="#244182" opacity="1.000000" stroke="none" 
	d="
M124.364731,144.097015 
	C124.298256,143.864853 124.499466,143.573914 124.969254,143.228088 
	C125.036018,143.461533 124.834221,143.749878 124.364731,144.097015 
z"/>
<path fill="#244182" opacity="1.000000" stroke="none" 
	d="
M123.275894,144.976456 
	C123.223419,144.746155 123.436409,144.481750 123.904053,144.161667 
	C123.952927,144.384781 123.747139,144.663559 123.275894,144.976456 
z"/>
<path fill="#244182" opacity="1.000000" stroke="none" 
	d="
M89.937691,145.315063 
	C90.179604,145.288895 90.438362,145.532272 90.684700,146.052673 
	C90.433029,146.081329 90.193779,145.832977 89.937691,145.315063 
z"/>
<path fill="#244182" opacity="1.000000" stroke="none" 
	d="
M131.311966,138.022675 
	C131.238846,137.805557 131.428162,137.512482 131.869781,137.128448 
	C131.939529,137.340561 131.756958,137.643631 131.311966,138.022675 
z"/>
<path fill="#244182" opacity="1.000000" stroke="none" 
	d="
M133.282593,136.006897 
	C133.205719,135.802490 133.381775,135.508606 133.799835,135.111710 
	C133.873077,135.311600 133.704300,135.614517 133.282593,136.006897 
z"/>
<path fill="#244182" opacity="1.000000" stroke="none" 
	d="
M91.987663,148.298157 
	C92.210487,148.231674 92.493645,148.429047 92.849945,148.881989 
	C92.631401,148.945709 92.339699,148.753860 91.987663,148.298157 
z"/>
<path fill="#244182" opacity="1.000000" stroke="none" 
	d="
M92.945076,149.337051 
	C93.163734,149.248047 93.462250,149.418777 93.861633,149.834473 
	C93.649971,149.918549 93.337456,149.757675 92.945076,149.337051 
z"/>
<path fill="#153783" opacity="1.000000" stroke="none" 
	d="
M151.672363,113.196289 
	C151.481476,113.019333 151.505768,112.679634 151.742249,112.176781 
	C151.932129,112.353600 151.909836,112.693565 151.672363,113.196289 
z"/>
<path fill="#153783" opacity="1.000000" stroke="none" 
	d="
M153.192490,109.801666 
	C152.926895,109.796242 152.778351,109.590332 152.629807,109.384422 
	C152.745239,109.311256 152.860672,109.238098 153.184601,109.154686 
	C153.393097,109.144440 153.309540,109.601173 153.192490,109.801666 
z"/>
<path fill="#153783" opacity="1.000000" stroke="none" 
	d="
M150.422821,114.277512 
	C150.367844,114.032951 150.586044,113.709648 151.112976,113.379585 
	C151.179794,113.648132 150.937912,113.923447 150.422821,114.277512 
z"/>
<path fill="#F7FAFC" opacity="1.000000" stroke="none" 
	d="
M56.798939,106.816475 
	C67.697136,95.632431 79.213242,85.937668 94.320572,81.789040 
	C97.569206,80.896935 101.082260,80.967743 105.053391,81.672630 
	C99.546799,88.196236 94.220245,94.882851 88.493759,101.207344 
	C78.520813,112.221741 68.420876,123.128052 58.113884,133.828964 
	C54.924736,137.140015 51.091946,139.953888 47.194195,142.429016 
	C42.175941,145.615677 39.755657,144.185501 40.082832,138.120636 
	C40.273651,134.583405 40.985260,130.680328 42.746151,127.700325 
	C46.947929,120.589523 51.911026,113.928574 56.798939,106.816475 
z"/>
</svg>