<svg version="1.1" id="Layer_1" xmlns="http://www.w3.org/2000/svg" xmlns:xlink="http://www.w3.org/1999/xlink" x="0px" y="0px"
	 width="100%" viewBox="0 0 1551 1568" enable-background="new 0 0 1551 1568" xml:space="preserve">
<path fill="#FF3333" opacity="1.000000" stroke="none" 
	d="
M300.000000,1.000001 
	C310.687561,1.000000 321.375122,1.000000 332.272156,1.366608 
	C333.156464,2.144792 333.782806,2.767475 334.513580,2.935337 
	C341.951935,4.643887 349.498383,5.951336 356.840607,7.995734 
	C377.693024,13.801963 396.188690,24.976147 415.578827,34.132378 
	C434.404388,43.022011 453.202393,52.050106 472.457672,59.929405 
	C496.658936,69.832596 521.074951,79.337372 545.851501,87.665878 
	C563.667236,93.654549 582.261230,97.301826 600.442322,102.235901 
	C624.624146,108.798477 649.433350,111.713753 674.172791,114.847549 
	C688.365662,116.645401 702.732239,117.173935 717.038452,117.942154 
	C728.452209,118.555046 739.894287,118.976959 751.321472,118.930252 
	C770.581238,118.851547 789.839905,118.369003 809.097717,117.989868 
	C823.026550,117.715660 836.955078,117.390373 850.880249,116.973969 
	C856.982361,116.791481 863.117004,116.660606 869.165222,115.920761 
	C883.769836,114.134270 898.419006,112.487511 912.890747,109.894234 
	C933.222900,106.250793 953.667297,102.760887 973.590393,97.435028 
	C994.890503,91.741074 1015.716858,84.213539 1036.614624,77.089340 
	C1075.377808,63.874699 1112.532349,46.873867 1149.046021,28.440645 
	C1171.337036,17.187386 1193.598755,5.937921 1218.882080,2.857619 
	C1219.323608,2.803837 1219.630371,1.643832 1220.000000,1.000001 
	C1230.687622,1.000000 1241.375122,1.000000 1252.271729,1.366091 
	C1252.989258,2.128769 1253.459961,2.806541 1254.011841,2.880815 
	C1267.395752,4.681924 1279.715820,9.263448 1291.611816,15.706361 
	C1308.840454,25.037537 1324.261597,36.511513 1336.299072,51.959595 
	C1352.268677,72.453903 1363.511963,95.044365 1366.166138,121.489082 
	C1367.780396,137.572906 1367.599731,153.489822 1363.318359,168.971970 
	C1359.770142,181.803482 1354.591431,194.184097 1350.321167,206.238998 
	C1349.847290,206.429672 1350.267578,206.296768 1350.655029,206.099487 
	C1375.244629,193.580215 1400.942383,186.591400 1428.904541,188.861603 
	C1443.095947,190.013763 1456.625488,193.267746 1469.350220,199.231567 
	C1490.521973,209.154358 1508.968018,222.686111 1523.256226,241.628250 
	C1536.186890,258.770538 1546.507690,276.975586 1550.096680,298.465179 
	C1550.197021,299.065979 1551.342041,299.492310 1552.000000,300.000000 
	C1552.000000,313.687561 1552.000000,327.375122 1551.651367,341.240662 
	C1550.896973,341.924988 1550.207520,342.389893 1550.126587,342.943726 
	C1547.335083,362.043854 1539.503662,379.429016 1531.611694,396.746429 
	C1519.581909,423.143433 1506.268677,449.002899 1495.326904,475.835388 
	C1483.991577,503.632538 1474.345093,532.154785 1464.844849,560.654785 
	C1452.701904,597.081665 1445.757324,634.739746 1441.135376,672.782898 
	C1439.073730,689.752197 1438.038452,706.866028 1437.094360,723.945068 
	C1436.307495,738.180359 1436.106567,752.460083 1436.072388,766.721130 
	C1436.045410,777.982056 1436.724365,789.243103 1436.986450,800.506531 
	C1437.372192,817.097839 1437.389648,833.702881 1438.083618,850.280273 
	C1438.668701,864.256165 1439.644287,878.237305 1441.084839,892.150085 
	C1442.701294,907.763733 1443.940308,923.543396 1447.295288,938.822327 
	C1453.284912,966.099854 1459.980835,993.276245 1467.778442,1020.088684 
	C1477.087036,1052.096436 1489.270752,1083.163818 1503.004517,1113.546143 
	C1513.082275,1135.840454 1524.084717,1157.714844 1534.374268,1179.916016 
	C1541.356079,1194.980835 1547.519409,1210.381836 1550.079346,1226.964111 
	C1550.196533,1227.723511 1551.336426,1228.324951 1552.000000,1229.000000 
	C1552.000000,1242.687622 1552.000000,1256.375122 1551.656006,1270.233887 
	C1549.978394,1275.036011 1548.817749,1279.725220 1547.282227,1284.288208 
	C1538.164185,1311.385010 1522.538818,1334.016968 1500.387329,1352.108032 
	C1487.626953,1362.529419 1473.554688,1370.900269 1457.869019,1375.793335 
	C1440.550781,1381.195679 1422.779053,1383.598145 1404.441772,1381.137939 
	C1390.279663,1379.238037 1376.595947,1376.137695 1363.570679,1370.232178 
	C1358.883301,1368.106812 1354.129028,1366.128906 1348.831543,1363.835449 
	C1350.293701,1367.110107 1351.279663,1369.483276 1352.396118,1371.793335 
	C1364.360718,1396.550293 1369.428589,1422.467651 1366.064575,1449.944214 
	C1364.505859,1462.676514 1361.241821,1474.879761 1355.806152,1486.441650 
	C1345.600830,1508.148315 1331.422241,1526.728271 1312.201904,1541.356689 
	C1295.782227,1553.853638 1278.088867,1563.465332 1257.520508,1567.096436 
	C1256.920410,1567.202393 1256.502686,1568.342285 1256.000000,1569.000000 
	C1243.645752,1569.000000 1231.291504,1569.000000 1218.727783,1568.633545 
	C1217.843872,1567.855347 1217.205444,1567.166504 1216.489502,1567.073242 
	C1203.469727,1565.375000 1191.064087,1561.534668 1179.221924,1555.996460 
	C1166.261108,1549.934937 1153.549805,1543.338623 1140.574097,1537.310303 
	C1124.333740,1529.765625 1108.150513,1522.028320 1091.556274,1515.331543 
	C1063.995239,1504.209106 1036.429932,1492.953369 1008.299805,1483.427246 
	C981.535034,1474.363403 954.156494,1466.954956 926.044556,1462.963013 
	C904.198975,1459.860840 882.363098,1456.614380 860.442566,1454.144775 
	C847.668396,1452.705566 834.733704,1452.062500 821.875488,1452.113892 
	C782.023010,1452.273315 742.134094,1450.635010 702.331238,1453.997314 
	C690.539185,1454.993408 678.712708,1455.695068 666.964294,1457.065674 
	C652.359314,1458.769531 637.686340,1460.354126 623.278748,1463.189087 
	C595.374451,1468.680054 567.717957,1475.317993 540.882507,1484.957642 
	C521.017151,1492.093628 500.773773,1498.332520 481.363312,1506.541992 
	C454.962860,1517.707886 429.078339,1530.125122 403.193329,1542.468628 
	C381.571075,1552.779541 360.413452,1564.149780 336.117767,1567.142212 
	C335.675598,1567.196655 335.369537,1568.356201 335.000000,1569.000000 
	C322.645782,1569.000000 310.291534,1569.000000 297.766022,1568.656006 
	C297.089874,1567.903931 296.630920,1567.220093 296.073578,1567.127441 
	C269.273285,1562.666260 247.514999,1548.577148 228.283783,1530.442261 
	C220.742050,1523.330566 214.817886,1514.425537 208.584534,1506.020142 
	C194.577148,1487.131836 188.043533,1465.361694 186.168808,1442.304199 
	C184.789841,1425.344238 187.195267,1408.548706 192.912750,1392.411377 
	C196.248947,1382.995239 199.981949,1373.719604 203.716064,1363.908691 
	C199.740768,1365.784546 196.037201,1367.580688 192.293945,1369.290039 
	C175.164368,1377.111572 157.152008,1381.475708 138.360397,1381.861694 
	C130.356247,1382.026245 122.306999,1380.810913 114.302917,1379.983765 
	C100.150864,1378.521362 86.976852,1373.508423 74.749451,1366.734131 
	C58.618603,1357.797119 44.063080,1346.608521 32.410275,1331.967773 
	C17.894590,1313.730225 6.625326,1294.014160 2.906582,1270.607178 
	C2.807931,1269.986206 1.659097,1269.531982 1.000000,1269.000000 
	C1.000000,1256.312378 1.000000,1243.624878 1.348691,1230.759521 
	C2.119807,1229.909424 2.747797,1229.288818 2.932603,1228.556519 
	C4.640468,1221.787842 6.087800,1214.948486 7.958881,1208.226685 
	C14.438066,1184.949951 27.101797,1164.372314 36.834251,1142.513062 
	C44.847656,1124.514771 53.504360,1106.764038 60.633236,1088.420532 
	C70.099030,1064.063965 79.050591,1039.457153 86.920853,1014.546387 
	C93.568764,993.504578 99.342514,972.074524 103.704765,950.453430 
	C108.253609,927.907532 111.216461,904.991516 113.802299,882.116211 
	C115.745399,864.926819 116.870178,847.543762 116.823318,830.251099 
	C116.716194,790.726685 115.864052,751.200012 114.895233,711.684570 
	C114.552567,697.708191 113.646294,683.675476 111.822441,669.823181 
	C109.525543,652.378052 106.013855,635.093384 103.045494,617.736145 
	C98.343742,590.243042 90.236191,563.615662 81.449440,537.263000 
	C74.003143,514.930542 65.626472,492.844482 56.402569,471.185547 
	C46.136719,447.079956 34.636936,423.489807 23.316000,399.846832 
	C14.355495,381.133514 6.297687,362.176605 2.903125,341.538116 
	C2.804312,340.937347 1.657944,340.508820 1.000006,340.000000 
	C1.000000,327.312439 1.000000,314.624878 1.348273,301.759918 
	C2.102427,301.076447 2.798794,300.608795 2.871642,300.058624 
	C4.627991,286.794373 8.964271,274.328644 16.111605,263.144531 
	C23.387793,251.758850 30.875601,240.325897 39.711517,230.166733 
	C50.190292,218.118668 63.655426,209.270569 77.912949,202.122345 
	C97.913391,192.094833 118.984596,187.330139 141.700668,188.758133 
	C159.628067,189.885071 176.429672,194.131363 192.675980,201.307922 
	C196.638428,203.058273 200.465561,205.114960 205.186157,207.440262 
	C202.116821,201.234482 199.177887,196.265167 197.116684,190.955124 
	C188.541428,168.863815 184.045105,146.185013 186.889893,122.280792 
	C188.484802,108.879128 191.462936,95.869270 197.185440,83.779945 
	C207.324844,62.359463 221.084641,43.552429 240.311325,29.204317 
	C257.742920,16.195812 276.513611,6.133711 298.393097,2.905558 
	C299.009033,2.814680 299.467896,1.659114 300.000000,1.000001 
M686.635620,628.901062 
	C675.133972,619.296936 663.571167,609.764954 652.141174,600.076355 
	C600.412903,556.229248 548.699341,512.364807 497.023651,468.455780 
	C430.365723,411.816345 363.751251,355.125793 297.096375,298.482788 
	C295.821228,297.399170 294.277374,296.631775 292.858887,295.716827 
	C293.180908,297.787506 294.098267,299.099335 295.116180,300.327881 
	C330.299622,342.791626 365.503082,385.238739 400.681763,427.706421 
	C461.794312,501.481323 522.917480,575.247437 583.977600,649.065796 
	C598.081177,666.116272 612.687622,682.821228 625.741211,700.652527 
	C643.025085,724.262390 653.831299,750.800720 655.916199,780.351196 
	C657.116211,797.359375 653.436523,813.652344 647.429993,829.418030 
	C638.069031,853.988586 623.234009,875.064087 606.373840,895.109131 
	C559.724792,950.569885 513.606384,1006.476990 467.279938,1062.208984 
	C409.558502,1131.649780 351.836914,1201.090332 294.133850,1270.546265 
	C293.191528,1271.680542 292.484375,1273.010010 291.667419,1274.248413 
	C293.657776,1273.977295 294.921661,1273.202271 296.041351,1272.256592 
	C324.425873,1248.284424 352.817902,1224.321167 381.162903,1200.302246 
	C452.727325,1139.660645 524.261963,1078.983643 595.824646,1018.339905 
	C619.465576,998.306091 643.596619,978.823608 666.689758,958.178772 
	C686.646362,940.338013 708.248108,925.549011 733.086609,915.536377 
	C756.178345,906.227844 779.910278,904.288147 803.993896,910.379150 
	C826.845581,916.158569 847.459412,927.008423 865.920410,941.489624 
	C881.374023,953.611938 896.054443,966.721497 911.048096,979.428406 
	C976.635620,1035.012695 1042.220459,1090.600098 1107.790894,1146.204590 
	C1157.603882,1188.446411 1207.391968,1230.718018 1257.207397,1272.957153 
	C1258.193237,1273.792969 1259.379150,1274.392822 1260.471680,1275.102783 
	C1260.529419,1273.174561 1259.898438,1272.095459 1259.114258,1271.142456 
	C1251.916870,1262.394409 1244.713989,1253.650635 1237.473389,1244.938232 
	C1155.689697,1146.530518 1073.900024,1048.127808 992.109680,949.725525 
	C976.881714,931.404663 961.986389,912.793213 946.327515,894.848145 
	C925.301331,870.752136 908.768494,844.341675 900.635742,813.104797 
	C895.981506,795.228516 895.533081,777.368408 899.796875,759.350159 
	C904.860901,737.950623 914.226807,718.443481 927.013000,700.806213 
	C938.620667,684.794495 951.250549,669.495300 963.896667,654.269897 
	C1029.576660,575.193542 1095.400635,496.236847 1161.185913,417.248047 
	C1193.597900,378.330750 1226.039673,339.438385 1258.438477,300.510132 
	C1259.573242,299.146729 1260.391235,297.519623 1261.356934,296.015411 
	C1261.028442,295.753021 1260.699951,295.490631 1260.371460,295.228271 
	C1258.814575,296.422882 1257.203247,297.553345 1255.708862,298.821686 
	C1228.272217,322.108307 1200.876465,345.443207 1173.418945,368.705261 
	C1078.457886,449.156677 983.276855,529.350647 888.654053,610.197937 
	C867.208252,628.521606 845.171936,645.197388 818.733276,655.549377 
	C793.632629,665.377502 768.114136,667.009583 742.506592,658.646179 
	C722.486511,652.107605 704.103821,642.001160 686.635620,628.901062 
z"/>
<path fill="#000000" opacity="1.000000" stroke="none" 
	d="
M1219.531372,1.000001 
	C1219.630371,1.643832 1219.323608,2.803837 1218.882080,2.857619 
	C1193.598755,5.937921 1171.337036,17.187386 1149.046021,28.440645 
	C1112.532349,46.873867 1075.377808,63.874699 1036.614624,77.089340 
	C1015.716858,84.213539 994.890503,91.741074 973.590393,97.435028 
	C953.667297,102.760887 933.222900,106.250793 912.890747,109.894234 
	C898.419006,112.487511 883.769836,114.134270 869.165222,115.920761 
	C863.117004,116.660606 856.982361,116.791481 850.880249,116.973969 
	C836.955078,117.390373 823.026550,117.715660 809.097717,117.989868 
	C789.839905,118.369003 770.581238,118.851547 751.321472,118.930252 
	C739.894287,118.976959 728.452209,118.555046 717.038452,117.942154 
	C702.732239,117.173935 688.365662,116.645401 674.172791,114.847549 
	C649.433350,111.713753 624.624146,108.798477 600.442322,102.235901 
	C582.261230,97.301826 563.667236,93.654549 545.851501,87.665878 
	C521.074951,79.337372 496.658936,69.832596 472.457672,59.929405 
	C453.202393,52.050106 434.404388,43.022011 415.578827,34.132378 
	C396.188690,24.976147 377.693024,13.801963 356.840607,7.995734 
	C349.498383,5.951336 341.951935,4.643887 334.513580,2.935337 
	C333.782806,2.767475 333.156464,2.144792 332.740845,1.366608 
	C628.354248,1.000000 923.708496,1.000000 1219.531372,1.000001 
z"/>
<path fill="#000000" opacity="1.000000" stroke="none" 
	d="
M1.000006,340.468628 
	C1.657944,340.508820 2.804312,340.937347 2.903125,341.538116 
	C6.297687,362.176605 14.355495,381.133514 23.316000,399.846832 
	C34.636936,423.489807 46.136719,447.079956 56.402569,471.185547 
	C65.626472,492.844482 74.003143,514.930542 81.449440,537.263000 
	C90.236191,563.615662 98.343742,590.243042 103.045494,617.736145 
	C106.013855,635.093384 109.525543,652.378052 111.822441,669.823181 
	C113.646294,683.675476 114.552567,697.708191 114.895233,711.684570 
	C115.864052,751.200012 116.716194,790.726685 116.823318,830.251099 
	C116.870178,847.543762 115.745399,864.926819 113.802299,882.116211 
	C111.216461,904.991516 108.253609,927.907532 103.704765,950.453430 
	C99.342514,972.074524 93.568764,993.504578 86.920853,1014.546387 
	C79.050591,1039.457153 70.099030,1064.063965 60.633236,1088.420532 
	C53.504360,1106.764038 44.847656,1124.514771 36.834251,1142.513062 
	C27.101797,1164.372314 14.438066,1184.949951 7.958881,1208.226685 
	C6.087800,1214.948486 4.640468,1221.787842 2.932603,1228.556519 
	C2.747797,1229.288818 2.119807,1229.909424 1.348691,1230.290894 
	C1.000000,933.645752 1.000000,637.291565 1.000006,340.468628 
z"/>
<path fill="#000000" opacity="1.000000" stroke="none" 
	d="
M335.468628,1569.000000 
	C335.369537,1568.356201 335.675598,1567.196655 336.117767,1567.142212 
	C360.413452,1564.149780 381.571075,1552.779541 403.193329,1542.468628 
	C429.078339,1530.125122 454.962860,1517.707886 481.363312,1506.541992 
	C500.773773,1498.332520 521.017151,1492.093628 540.882507,1484.957642 
	C567.717957,1475.317993 595.374451,1468.680054 623.278748,1463.189087 
	C637.686340,1460.354126 652.359314,1458.769531 666.964294,1457.065674 
	C678.712708,1455.695068 690.539185,1454.993408 702.331238,1453.997314 
	C742.134094,1450.635010 782.023010,1452.273315 821.875488,1452.113892 
	C834.733704,1452.062500 847.668396,1452.705566 860.442566,1454.144775 
	C882.363098,1456.614380 904.198975,1459.860840 926.044556,1462.963013 
	C954.156494,1466.954956 981.535034,1474.363403 1008.299805,1483.427246 
	C1036.429932,1492.953369 1063.995239,1504.209106 1091.556274,1515.331543 
	C1108.150513,1522.028320 1124.333740,1529.765625 1140.574097,1537.310303 
	C1153.549805,1543.338623 1166.261108,1549.934937 1179.221924,1555.996460 
	C1191.064087,1561.534668 1203.469727,1565.375000 1216.489502,1567.073242 
	C1217.205444,1567.166504 1217.843872,1567.855347 1218.259277,1568.633545 
	C923.979126,1569.000000 629.958191,1569.000000 335.468628,1569.000000 
z"/>
<path fill="#000000" opacity="1.000000" stroke="none" 
	d="
M1552.000000,1228.531372 
	C1551.336426,1228.324951 1550.196533,1227.723511 1550.079346,1226.964111 
	C1547.519409,1210.381836 1541.356079,1194.980835 1534.374268,1179.916016 
	C1524.084717,1157.714844 1513.082275,1135.840454 1503.004517,1113.546143 
	C1489.270752,1083.163818 1477.087036,1052.096436 1467.778442,1020.088684 
	C1459.980835,993.276245 1453.284912,966.099854 1447.295288,938.822327 
	C1443.940308,923.543396 1442.701294,907.763733 1441.084839,892.150085 
	C1439.644287,878.237305 1438.668701,864.256165 1438.083618,850.280273 
	C1437.389648,833.702881 1437.372192,817.097839 1436.986450,800.506531 
	C1436.724365,789.243103 1436.045410,777.982056 1436.072388,766.721130 
	C1436.106567,752.460083 1436.307495,738.180359 1437.094360,723.945068 
	C1438.038452,706.866028 1439.073730,689.752197 1441.135376,672.782898 
	C1445.757324,634.739746 1452.701904,597.081665 1464.844849,560.654785 
	C1474.345093,532.154785 1483.991577,503.632538 1495.326904,475.835388 
	C1506.268677,449.002899 1519.581909,423.143433 1531.611694,396.746429 
	C1539.503662,379.429016 1547.335083,362.043854 1550.126587,342.943726 
	C1550.207520,342.389893 1550.896973,341.924988 1551.651367,341.709290 
	C1552.000000,637.354248 1552.000000,932.708496 1552.000000,1228.531372 
z"/>
<path fill="#000000" opacity="1.000000" stroke="none" 
	d="
M299.531342,1.000001 
	C299.467896,1.659114 299.009033,2.814680 298.393097,2.905558 
	C276.513611,6.133711 257.742920,16.195812 240.311325,29.204317 
	C221.084641,43.552429 207.324844,62.359463 197.185440,83.779945 
	C191.462936,95.869270 188.484802,108.879128 186.889893,122.280792 
	C184.045105,146.185013 188.541428,168.863815 197.116684,190.955124 
	C199.177887,196.265167 202.116821,201.234482 205.186157,207.440262 
	C200.465561,205.114960 196.638428,203.058273 192.675980,201.307922 
	C176.429672,194.131363 159.628067,189.885071 141.700668,188.758133 
	C118.984596,187.330139 97.913391,192.094833 77.912949,202.122345 
	C63.655426,209.270569 50.190292,218.118668 39.711517,230.166733 
	C30.875601,240.325897 23.387793,251.758850 16.111605,263.144531 
	C8.964271,274.328644 4.627991,286.794373 2.871642,300.058624 
	C2.798794,300.608795 2.102427,301.076447 1.348273,301.291260 
	C1.000000,201.073059 1.000000,101.146118 1.000000,1.000000 
	C100.354118,1.000000 199.708405,1.000000 299.531342,1.000001 
z"/>
<path fill="#000000" opacity="1.000000" stroke="none" 
	d="
M1552.000000,299.531372 
	C1551.342041,299.492310 1550.197021,299.065979 1550.096680,298.465179 
	C1546.507690,276.975586 1536.186890,258.770538 1523.256226,241.628250 
	C1508.968018,222.686111 1490.521973,209.154358 1469.350220,199.231567 
	C1456.625488,193.267746 1443.095947,190.013763 1428.904541,188.861603 
	C1400.942383,186.591400 1375.244629,193.580215 1350.655029,206.099487 
	C1350.267578,206.296768 1349.847290,206.429672 1350.321167,206.238998 
	C1354.591431,194.184097 1359.770142,181.803482 1363.318359,168.971970 
	C1367.599731,153.489822 1367.780396,137.572906 1366.166138,121.489082 
	C1363.511963,95.044365 1352.268677,72.453903 1336.299072,51.959595 
	C1324.261597,36.511513 1308.840454,25.037537 1291.611816,15.706361 
	C1279.715820,9.263448 1267.395752,4.681924 1254.011841,2.880815 
	C1253.459961,2.806541 1252.989258,2.128769 1252.740356,1.366091 
	C1352.593750,1.000000 1452.187378,1.000000 1552.000000,1.000000 
	C1552.000000,100.354118 1552.000000,199.708405 1552.000000,299.531372 
z"/>
<path fill="#000000" opacity="1.000000" stroke="none" 
	d="
M1.000000,1269.468628 
	C1.659097,1269.531982 2.807931,1269.986206 2.906582,1270.607178 
	C6.625326,1294.014160 17.894590,1313.730225 32.410275,1331.967773 
	C44.063080,1346.608521 58.618603,1357.797119 74.749451,1366.734131 
	C86.976852,1373.508423 100.150864,1378.521362 114.302917,1379.983765 
	C122.306999,1380.810913 130.356247,1382.026245 138.360397,1381.861694 
	C157.152008,1381.475708 175.164368,1377.111572 192.293945,1369.290039 
	C196.037201,1367.580688 199.740768,1365.784546 203.716064,1363.908691 
	C199.981949,1373.719604 196.248947,1382.995239 192.912750,1392.411377 
	C187.195267,1408.548706 184.789841,1425.344238 186.168808,1442.304199 
	C188.043533,1465.361694 194.577148,1487.131836 208.584534,1506.020142 
	C214.817886,1514.425537 220.742050,1523.330566 228.283783,1530.442261 
	C247.514999,1548.577148 269.273285,1562.666260 296.073578,1567.127441 
	C296.630920,1567.220093 297.089874,1567.903931 297.297363,1568.656006 
	C198.405777,1569.000000 99.811539,1569.000000 1.000000,1569.000000 
	C1.000000,1469.312500 1.000000,1369.624878 1.000000,1269.468628 
z"/>
<path fill="#000000" opacity="1.000000" stroke="none" 
	d="
M1256.468628,1569.000000 
	C1256.502686,1568.342285 1256.920410,1567.202393 1257.520508,1567.096436 
	C1278.088867,1563.465332 1295.782227,1553.853638 1312.201904,1541.356689 
	C1331.422241,1526.728271 1345.600830,1508.148315 1355.806152,1486.441650 
	C1361.241821,1474.879761 1364.505859,1462.676514 1366.064575,1449.944214 
	C1369.428589,1422.467651 1364.360718,1396.550293 1352.396118,1371.793335 
	C1351.279663,1369.483276 1350.293701,1367.110107 1348.831543,1363.835449 
	C1354.129028,1366.128906 1358.883301,1368.106812 1363.570679,1370.232178 
	C1376.595947,1376.137695 1390.279663,1379.238037 1404.441772,1381.137939 
	C1422.779053,1383.598145 1440.550781,1381.195679 1457.869019,1375.793335 
	C1473.554688,1370.900269 1487.626953,1362.529419 1500.387329,1352.108032 
	C1522.538818,1334.016968 1538.164185,1311.385010 1547.282227,1284.288208 
	C1548.817749,1279.725220 1549.978394,1275.036011 1551.656006,1270.702637 
	C1552.000000,1370.260132 1552.000000,1469.520386 1552.000000,1569.000000 
	C1453.645874,1569.000000 1355.291504,1569.000000 1256.468628,1569.000000 
z"/>
<path fill="#FFFEFE" opacity="1.000000" stroke="none" 
	d="
M686.929260,629.102417 
	C704.103821,642.001160 722.486511,652.107605 742.506592,658.646179 
	C768.114136,667.009583 793.632629,665.377502 818.733276,655.549377 
	C845.171936,645.197388 867.208252,628.521606 888.654053,610.197937 
	C983.276855,529.350647 1078.457886,449.156677 1173.418945,368.705261 
	C1200.876465,345.443207 1228.272217,322.108307 1255.708862,298.821686 
	C1257.203247,297.553345 1258.814575,296.422882 1260.371460,295.228271 
	C1260.699951,295.490631 1261.028442,295.753021 1261.356934,296.015411 
	C1260.391235,297.519623 1259.573242,299.146729 1258.438477,300.510132 
	C1226.039673,339.438385 1193.597900,378.330750 1161.185913,417.248047 
	C1095.400635,496.236847 1029.576660,575.193542 963.896667,654.269897 
	C951.250549,669.495300 938.620667,684.794495 927.013000,700.806213 
	C914.226807,718.443481 904.860901,737.950623 899.796875,759.350159 
	C895.533081,777.368408 895.981506,795.228516 900.635742,813.104797 
	C908.768494,844.341675 925.301331,870.752136 946.327515,894.848145 
	C961.986389,912.793213 976.881714,931.404663 992.109680,949.725525 
	C1073.900024,1048.127808 1155.689697,1146.530518 1237.473389,1244.938232 
	C1244.713989,1253.650635 1251.916870,1262.394409 1259.114258,1271.142456 
	C1259.898438,1272.095459 1260.529419,1273.174561 1260.471680,1275.102783 
	C1259.379150,1274.392822 1258.193237,1273.792969 1257.207397,1272.957153 
	C1207.391968,1230.718018 1157.603882,1188.446411 1107.790894,1146.204590 
	C1042.220459,1090.600098 976.635620,1035.012695 911.048096,979.428406 
	C896.054443,966.721497 881.374023,953.611938 865.920410,941.489624 
	C847.459412,927.008423 826.845581,916.158569 803.993896,910.379150 
	C779.910278,904.288147 756.178345,906.227844 733.086609,915.536377 
	C708.248108,925.549011 686.646362,940.338013 666.689758,958.178772 
	C643.596619,978.823608 619.465576,998.306091 595.824646,1018.339905 
	C524.261963,1078.983643 452.727325,1139.660645 381.162903,1200.302246 
	C352.817902,1224.321167 324.425873,1248.284424 296.041351,1272.256592 
	C294.921661,1273.202271 293.657776,1273.977295 291.667419,1274.248413 
	C292.484375,1273.010010 293.191528,1271.680542 294.133850,1270.546265 
	C351.836914,1201.090332 409.558502,1131.649780 467.279938,1062.208984 
	C513.606384,1006.476990 559.724792,950.569885 606.373840,895.109131 
	C623.234009,875.064087 638.069031,853.988586 647.429993,829.418030 
	C653.436523,813.652344 657.116211,797.359375 655.916199,780.351196 
	C653.831299,750.800720 643.025085,724.262390 625.741211,700.652527 
	C612.687622,682.821228 598.081177,666.116272 583.977600,649.065796 
	C522.917480,575.247437 461.794312,501.481323 400.681763,427.706421 
	C365.503082,385.238739 330.299622,342.791626 295.116180,300.327881 
	C294.098267,299.099335 293.180908,297.787506 292.858887,295.716827 
	C294.277374,296.631775 295.821228,297.399170 297.096375,298.482788 
	C363.751251,355.125793 430.365723,411.816345 497.023651,468.455780 
	C548.699341,512.364807 600.412903,556.229248 652.141174,600.076355 
	C663.571167,609.764954 675.133972,619.296936 686.929260,629.102417 
z"/>
</svg>