<svg version="1.1" id="Layer_1" xmlns="http://www.w3.org/2000/svg" xmlns:xlink="http://www.w3.org/1999/xlink" x="0px" y="0px"
	 width="100%" viewBox="0 0 1552 1551" enable-background="new 0 0 1552 1551" xml:space="preserve">
<path fill="#EE2722" opacity="1.000000" stroke="none" 
	d="
M730.000000,1.000000 
	C761.020874,1.000000 792.041809,1.000000 823.365112,1.414768 
	C824.348267,2.209648 825.003906,2.864479 825.713501,2.929437 
	C840.945374,4.323899 856.226746,5.287652 871.408142,7.094287 
	C887.152832,8.967957 902.839722,11.417624 918.484863,14.018492 
	C952.472778,19.668655 985.640076,28.664068 1018.479309,38.978100 
	C1050.754639,49.115005 1081.864868,62.205811 1112.520020,76.352531 
	C1126.324219,82.722855 1139.830933,89.884697 1152.922363,97.618965 
	C1174.281860,110.238098 1195.398438,123.298340 1216.242310,136.753662 
	C1250.417236,158.814499 1281.468628,184.927002 1310.992310,212.762650 
	C1326.424072,227.312027 1340.903931,242.940750 1355.047974,258.766357 
	C1368.722046,274.066010 1382.080322,289.744965 1394.362671,306.165741 
	C1408.925659,325.635620 1422.855835,345.655640 1435.849121,366.203156 
	C1452.278442,392.184631 1467.314941,419.058655 1479.592651,447.301910 
	C1489.144531,469.274658 1498.795166,491.275696 1506.782837,513.837402 
	C1515.089355,537.299438 1522.171997,561.262451 1528.441284,585.357239 
	C1533.648193,605.368896 1537.135986,625.845398 1540.923340,646.201965 
	C1543.106201,657.934875 1544.515259,669.820374 1546.010620,681.670227 
	C1547.510010,693.552490 1548.958740,705.453857 1549.912842,717.388123 
	C1550.677612,726.954590 1550.614624,736.585693 1551.085938,746.179810 
	C1551.133667,747.148926 1552.334351,748.061340 1553.000000,749.000000 
	C1553.000000,771.020874 1553.000000,793.041809 1552.584717,815.365845 
	C1551.789551,816.350098 1551.122314,817.012024 1551.075073,817.715454 
	C1550.654663,823.979614 1550.459595,830.260193 1549.976074,836.518677 
	C1549.050293,848.497253 1548.456299,860.528870 1546.851562,872.420776 
	C1544.666992,888.610107 1541.840088,904.720215 1538.975220,920.808594 
	C1533.854858,949.562134 1526.791016,977.852417 1518.090088,1005.733398 
	C1507.635132,1039.234009 1495.860107,1072.254150 1480.034790,1103.630493 
	C1467.298828,1128.881836 1455.031982,1154.503418 1440.292236,1178.573853 
	C1424.788574,1203.891479 1407.294067,1228.091187 1389.358032,1251.786621 
	C1374.295044,1271.686401 1358.220093,1290.991577 1341.003540,1309.043823 
	C1321.450562,1329.545776 1300.701050,1349.012573 1279.398682,1367.706543 
	C1262.063477,1382.918945 1243.709717,1397.133789 1224.807495,1410.362061 
	C1189.433838,1435.118164 1152.508789,1457.394043 1113.421143,1475.976929 
	C1082.141724,1490.847656 1050.322876,1504.292114 1017.157898,1514.365479 
	C1000.487122,1519.428955 983.813843,1524.544434 966.953186,1528.908081 
	C939.113281,1536.113159 910.981873,1541.999512 882.330933,1545.047119 
	C866.658813,1546.714233 850.979492,1548.316406 835.317383,1550.071655 
	C834.154114,1550.202148 833.103149,1551.333862 832.000000,1552.000000 
	C795.312439,1552.000000 758.624878,1552.000000 721.640442,1551.589844 
	C720.677124,1550.797363 720.038879,1550.145386 719.340088,1550.072388 
	C702.841064,1548.347168 686.293884,1547.009766 669.843201,1544.913696 
	C654.766724,1542.992676 639.610718,1541.068970 624.814819,1537.713013 
	C599.567688,1531.986694 574.321472,1525.985474 549.535522,1518.561523 
	C513.253662,1507.694092 477.966003,1493.931274 443.880157,1477.327393 
	C429.019897,1470.088501 414.221771,1462.615356 399.955933,1454.288452 
	C379.658600,1442.440796 359.357544,1430.463257 340.022888,1417.140991 
	C320.765320,1403.871704 302.232056,1389.435181 284.242401,1374.474854 
	C266.479675,1359.703003 249.787827,1343.642822 232.661224,1328.109253 
	C231.936279,1327.451782 231.566284,1326.402954 230.699554,1325.000000 
	C233.623627,1325.000000 235.771317,1325.000000 237.919006,1325.000000 
	C550.571533,1325.000000 863.224060,1324.984863 1175.876465,1325.132202 
	C1180.986572,1325.134644 1183.388428,1322.865967 1185.823120,1318.863037 
	C1184.674683,1318.492065 1183.938843,1318.068848 1183.187256,1318.038696 
	C1165.649414,1317.333496 1148.108643,1316.695557 1130.570557,1315.992798 
	C1114.863037,1315.363281 1099.159302,1314.639648 1083.451538,1314.014404 
	C1065.746948,1313.309692 1048.039429,1312.678101 1030.333862,1311.995850 
	C1022.396545,1311.690063 1014.461304,1311.329224 1006.524475,1311.008667 
	C989.818665,1310.333862 973.112061,1309.676880 956.406433,1308.996460 
	C948.802490,1308.686646 941.200684,1308.323486 933.596863,1308.011230 
	C917.057861,1307.331665 900.518066,1306.673096 883.978821,1305.999023 
	C867.772522,1305.338745 851.566956,1304.657837 835.360229,1304.008057 
	C818.321411,1303.325073 801.280457,1302.694458 784.242493,1301.992188 
	C769.034790,1301.365479 753.830566,1300.654419 738.623474,1300.013062 
	C722.251587,1299.322388 705.878784,1298.651855 689.505188,1298.005005 
	C672.133301,1297.318481 654.758911,1296.696167 637.387512,1295.997437 
	C621.679932,1295.365601 605.975708,1294.651123 590.268677,1294.005127 
	C573.563416,1293.317993 556.856873,1292.663940 540.150513,1292.003906 
	C523.111389,1291.330566 506.070892,1290.689453 489.032654,1289.993774 
	C473.491913,1289.359131 457.954590,1288.641235 442.413635,1288.013184 
	C425.042267,1287.310913 407.666595,1286.713379 390.296356,1285.986084 
	C376.087250,1285.391235 361.885895,1284.609985 347.676422,1284.025146 
	C329.806396,1283.289551 311.931000,1282.687256 294.059143,1281.994995 
	C277.518799,1281.354248 260.980621,1280.656372 244.440491,1280.009644 
	C226.902405,1279.323730 209.365463,1278.303345 191.823151,1278.191406 
	C185.389175,1278.150391 182.921570,1274.283081 178.852264,1270.000000 
	C182.137695,1270.000000 184.300583,1270.000000 186.463486,1270.000000 
	C535.614380,1270.000000 884.765259,1269.988037 1233.916138,1270.114502 
	C1239.102417,1270.116333 1241.955688,1268.678467 1242.703735,1263.430176 
	C1229.871338,1262.619873 1217.074097,1261.718872 1204.265625,1261.027954 
	C1189.898682,1260.252808 1175.521118,1259.669800 1161.148438,1258.999878 
	C1146.942139,1258.337769 1132.735718,1257.676392 1118.529785,1257.005859 
	C1104.489990,1256.343140 1090.451050,1255.662109 1076.411011,1255.002808 
	C1062.038696,1254.327881 1047.665527,1253.666870 1033.292603,1253.004150 
	C1018.753174,1252.333618 1004.212341,1251.694214 989.674377,1250.993652 
	C976.633057,1250.365112 963.597778,1249.606079 950.554504,1249.024048 
	C934.018127,1248.286133 917.474182,1247.720581 900.937744,1246.983521 
	C887.894470,1246.402100 874.858826,1245.651001 861.817810,1245.017578 
	C847.446350,1244.319702 833.071960,1243.680176 818.699768,1242.997314 
	C804.992920,1242.346191 791.288391,1241.645630 777.580627,1241.014771 
	C762.375916,1240.315063 747.167419,1239.696289 731.962891,1238.992065 
	C718.421570,1238.365234 704.883667,1237.664062 691.343811,1237.005859 
	C677.471252,1236.331299 663.598145,1235.668579 649.725281,1235.001709 
	C635.852356,1234.334717 621.980896,1233.638306 608.106201,1233.010742 
	C592.568298,1232.307983 577.025452,1231.713989 561.488770,1230.986572 
	C548.779236,1230.391479 536.078003,1229.617920 523.368713,1229.018311 
	C507.998566,1228.293335 492.622620,1227.692017 477.251221,1226.993286 
	C463.376801,1226.362549 449.506561,1225.640869 435.631836,1225.017090 
	C419.927399,1224.311157 404.217499,1223.723389 388.514771,1222.982666 
	C376.304352,1222.406616 364.103394,1221.632935 351.894409,1221.023438 
	C337.523895,1220.305908 323.148560,1219.686401 308.776672,1218.995605 
	C295.402771,1218.353027 282.032166,1217.639771 268.657349,1217.017700 
	C253.452972,1216.310547 238.244812,1215.685181 223.039597,1214.995850 
	C208.832458,1214.351807 194.626938,1213.671875 180.420853,1213.005127 
	C166.218124,1212.338501 152.010086,1211.759644 137.818710,1210.904419 
	C135.613342,1210.771606 133.484406,1209.370361 131.320145,1208.555542 
	C131.485657,1208.037109 131.651184,1207.518555 131.816696,1207.000000 
	C133.774551,1207.000000 135.732391,1207.000000 137.690247,1207.000000 
	C281.183746,1207.000000 424.677277,1207.016113 568.170776,1206.957642 
	C576.273987,1206.954346 584.380493,1206.408447 592.479248,1205.992798 
	C611.123169,1205.035767 629.766724,1204.063721 648.403259,1202.974854 
	C657.448669,1202.446411 666.530396,1202.045166 675.503418,1200.876953 
	C693.672852,1198.511597 711.829224,1195.960083 729.897278,1192.926514 
	C746.785889,1190.091064 763.685303,1187.090942 780.339783,1183.148560 
	C800.616089,1178.348999 820.678589,1172.623291 840.766235,1167.055176 
	C870.691650,1158.760010 899.524963,1147.448730 927.755432,1134.616089 
	C970.346680,1115.255493 1007.915710,1088.112915 1042.655273,1057.280518 
	C1056.960938,1044.583984 1069.156738,1029.194336 1080.762207,1013.856995 
	C1093.349243,997.222534 1105.009521,979.729492 1115.438721,961.666626 
	C1124.795410,945.461182 1132.436523,928.193176 1139.911865,910.992920 
	C1147.979248,892.430481 1153.788940,873.003235 1157.340576,853.060608 
	C1160.378906,836.000427 1163.003052,818.828186 1164.802490,801.600220 
	C1165.874268,791.340271 1165.375000,780.860168 1164.908691,770.509399 
	C1164.286011,756.686584 1163.705322,742.798462 1161.839600,729.111084 
	C1159.482544,711.819824 1156.793579,694.465271 1152.544556,677.566223 
	C1146.298218,652.723145 1137.335327,628.659790 1125.814331,605.748291 
	C1115.606201,585.447571 1104.619263,565.497803 1090.270508,547.697266 
	C1079.761597,534.660461 1069.362427,521.507446 1058.257080,508.989410 
	C1051.121948,500.946686 1043.027466,493.697327 1034.939453,486.573151 
	C1025.826660,478.546234 1016.522095,470.679962 1006.804443,463.407166 
	C975.593811,440.048859 941.351074,422.205994 904.594482,409.384308 
	C881.005127,401.155762 856.892029,394.672668 831.928833,391.998505 
	C818.864197,390.599030 805.797668,388.393646 792.710632,388.226044 
	C774.517700,387.993164 756.292114,389.101501 738.105347,390.091827 
	C728.615051,390.608612 719.023376,391.364166 709.748657,393.306763 
	C690.154297,397.410858 670.568909,401.753357 651.929443,409.417267 
	C650.926941,409.829468 648.902771,409.323761 648.142456,408.509399 
	C642.286377,402.237000 636.638733,395.770416 630.900818,389.387115 
	C615.999695,372.809967 601.097229,356.234009 586.171143,339.679352 
	C579.463928,332.240265 572.661377,324.887024 565.968079,317.435486 
	C551.740234,301.595856 537.567871,285.706329 523.347961,269.859497 
	C516.283997,261.987274 509.131653,254.194260 502.078522,246.312424 
	C489.031006,231.732025 476.078094,217.066742 462.985962,202.526657 
	C455.126709,193.798187 447.002502,185.308441 439.131927,176.589920 
	C424.685150,160.586700 410.324036,144.505997 395.955719,128.432129 
	C390.206268,122.000298 384.532166,115.501137 378.522156,108.690872 
	C389.151855,102.910126 399.224945,97.194839 409.507446,91.885223 
	C438.859680,76.728569 468.669891,62.511639 499.914459,51.668846 
	C522.988831,43.661358 546.143066,35.735252 569.648132,29.152599 
	C604.404907,19.418865 639.648315,11.622816 675.662781,7.960886 
	C692.497925,6.249087 709.348389,4.685964 726.178772,2.929993 
	C727.505188,2.791600 728.728699,1.666518 730.000000,1.000000 
z"/>
<path fill="#000000" opacity="1.000000" stroke="none" 
	d="
M729.531372,1.000000 
	C728.728699,1.666518 727.505188,2.791600 726.178772,2.929993 
	C709.348389,4.685964 692.497925,6.249087 675.662781,7.960886 
	C639.648315,11.622816 604.404907,19.418865 569.648132,29.152599 
	C546.143066,35.735252 522.988831,43.661358 499.914459,51.668846 
	C468.669891,62.511639 438.859680,76.728569 409.507446,91.885223 
	C399.224945,97.194839 389.151855,102.910126 378.522156,108.690872 
	C384.532166,115.501137 390.206268,122.000298 395.955719,128.432129 
	C410.324036,144.505997 424.685150,160.586700 439.131927,176.589920 
	C447.002502,185.308441 455.126709,193.798187 462.985962,202.526657 
	C476.078094,217.066742 489.031006,231.732025 502.078522,246.312424 
	C509.131653,254.194260 516.283997,261.987274 523.347961,269.859497 
	C537.567871,285.706329 551.740234,301.595856 565.968079,317.435486 
	C572.661377,324.887024 579.463928,332.240265 586.171143,339.679352 
	C601.097229,356.234009 615.999695,372.809967 630.900818,389.387115 
	C636.638733,395.770416 642.286377,402.237000 648.142456,408.509399 
	C648.902771,409.323761 650.926941,409.829468 651.929443,409.417267 
	C670.568909,401.753357 690.154297,397.410858 709.748657,393.306763 
	C719.023376,391.364166 728.615051,390.608612 738.105347,390.091827 
	C756.292114,389.101501 774.517700,387.993164 792.710632,388.226044 
	C805.797668,388.393646 818.864197,390.599030 831.928833,391.998505 
	C856.892029,394.672668 881.005127,401.155762 904.594482,409.384308 
	C941.351074,422.205994 975.593811,440.048859 1006.804443,463.407166 
	C1016.522095,470.679962 1025.826660,478.546234 1034.939453,486.573151 
	C1043.027466,493.697327 1051.121948,500.946686 1058.257080,508.989410 
	C1069.362427,521.507446 1079.761597,534.660461 1090.270508,547.697266 
	C1104.619263,565.497803 1115.606201,585.447571 1125.814331,605.748291 
	C1137.335327,628.659790 1146.298218,652.723145 1152.544556,677.566223 
	C1156.793579,694.465271 1159.482544,711.819824 1161.839600,729.111084 
	C1163.705322,742.798462 1164.286011,756.686584 1164.908691,770.509399 
	C1165.375000,780.860168 1165.874268,791.340271 1164.802490,801.600220 
	C1163.003052,818.828186 1160.378906,836.000427 1157.340576,853.060608 
	C1153.788940,873.003235 1147.979248,892.430481 1139.911865,910.992920 
	C1132.436523,928.193176 1124.795410,945.461182 1115.438721,961.666626 
	C1105.009521,979.729492 1093.349243,997.222534 1080.762207,1013.856995 
	C1069.156738,1029.194336 1056.960938,1044.583984 1042.655273,1057.280518 
	C1007.915710,1088.112915 970.346680,1115.255493 927.755432,1134.616089 
	C899.524963,1147.448730 870.691650,1158.760010 840.766235,1167.055176 
	C820.678589,1172.623291 800.616089,1178.348999 780.339783,1183.148560 
	C763.685303,1187.090942 746.785889,1190.091064 729.897278,1192.926514 
	C711.829224,1195.960083 693.672852,1198.511597 675.503418,1200.876953 
	C666.530396,1202.045166 657.448669,1202.446411 648.403259,1202.974854 
	C629.766724,1204.063721 611.123169,1205.035767 592.479248,1205.992798 
	C584.380493,1206.408447 576.273987,1206.954346 568.170776,1206.957642 
	C424.677277,1207.016113 281.183746,1207.000000 137.690247,1207.000000 
	C135.732391,1207.000000 133.774551,1207.000000 131.816696,1207.000000 
	C131.651184,1207.518555 131.485657,1208.037109 131.320145,1208.555542 
	C133.484406,1209.370361 135.613342,1210.771606 137.818710,1210.904419 
	C152.010086,1211.759644 166.218124,1212.338501 180.420853,1213.005127 
	C194.626938,1213.671875 208.832458,1214.351807 223.039597,1214.995850 
	C238.244812,1215.685181 253.452972,1216.310547 268.657349,1217.017700 
	C282.032166,1217.639771 295.402771,1218.353027 308.776672,1218.995605 
	C323.148560,1219.686401 337.523895,1220.305908 351.894409,1221.023438 
	C364.103394,1221.632935 376.304352,1222.406616 388.514771,1222.982666 
	C404.217499,1223.723389 419.927399,1224.311157 435.631836,1225.017090 
	C449.506561,1225.640869 463.376801,1226.362549 477.251221,1226.993286 
	C492.622620,1227.692017 507.998566,1228.293335 523.368713,1229.018311 
	C536.078003,1229.617920 548.779236,1230.391479 561.488770,1230.986572 
	C577.025452,1231.713989 592.568298,1232.307983 608.106201,1233.010742 
	C621.980896,1233.638306 635.852356,1234.334717 649.725281,1235.001709 
	C663.598145,1235.668579 677.471252,1236.331299 691.343811,1237.005859 
	C704.883667,1237.664062 718.421570,1238.365234 731.962891,1238.992065 
	C747.167419,1239.696289 762.375916,1240.315063 777.580627,1241.014771 
	C791.288391,1241.645630 804.992920,1242.346191 818.699768,1242.997314 
	C833.071960,1243.680176 847.446350,1244.319702 861.817810,1245.017578 
	C874.858826,1245.651001 887.894470,1246.402100 900.937744,1246.983521 
	C917.474182,1247.720581 934.018127,1248.286133 950.554504,1249.024048 
	C963.597778,1249.606079 976.633057,1250.365112 989.674377,1250.993652 
	C1004.212341,1251.694214 1018.753174,1252.333618 1033.292603,1253.004150 
	C1047.665527,1253.666870 1062.038696,1254.327881 1076.411011,1255.002808 
	C1090.451050,1255.662109 1104.489990,1256.343140 1118.529785,1257.005859 
	C1132.735718,1257.676392 1146.942139,1258.337769 1161.148438,1258.999878 
	C1175.521118,1259.669800 1189.898682,1260.252808 1204.265625,1261.027954 
	C1217.074097,1261.718872 1229.871338,1262.619873 1242.703735,1263.430176 
	C1241.955688,1268.678467 1239.102417,1270.116333 1233.916138,1270.114502 
	C884.765259,1269.988037 535.614380,1270.000000 186.463486,1270.000000 
	C184.300583,1270.000000 182.137695,1270.000000 178.852264,1270.000000 
	C182.921570,1274.283081 185.389175,1278.150391 191.823151,1278.191406 
	C209.365463,1278.303345 226.902405,1279.323730 244.440491,1280.009644 
	C260.980621,1280.656372 277.518799,1281.354248 294.059143,1281.994995 
	C311.931000,1282.687256 329.806396,1283.289551 347.676422,1284.025146 
	C361.885895,1284.609985 376.087250,1285.391235 390.296356,1285.986084 
	C407.666595,1286.713379 425.042267,1287.310913 442.413635,1288.013184 
	C457.954590,1288.641235 473.491913,1289.359131 489.032654,1289.993774 
	C506.070892,1290.689453 523.111389,1291.330566 540.150513,1292.003906 
	C556.856873,1292.663940 573.563416,1293.317993 590.268677,1294.005127 
	C605.975708,1294.651123 621.679932,1295.365601 637.387512,1295.997437 
	C654.758911,1296.696167 672.133301,1297.318481 689.505188,1298.005005 
	C705.878784,1298.651855 722.251587,1299.322388 738.623474,1300.013062 
	C753.830566,1300.654419 769.034790,1301.365479 784.242493,1301.992188 
	C801.280457,1302.694458 818.321411,1303.325073 835.360229,1304.008057 
	C851.566956,1304.657837 867.772522,1305.338745 883.978821,1305.999023 
	C900.518066,1306.673096 917.057861,1307.331665 933.596863,1308.011230 
	C941.200684,1308.323486 948.802490,1308.686646 956.406433,1308.996460 
	C973.112061,1309.676880 989.818665,1310.333862 1006.524475,1311.008667 
	C1014.461304,1311.329224 1022.396545,1311.690063 1030.333862,1311.995850 
	C1048.039429,1312.678101 1065.746948,1313.309692 1083.451538,1314.014404 
	C1099.159302,1314.639648 1114.863037,1315.363281 1130.570557,1315.992798 
	C1148.108643,1316.695557 1165.649414,1317.333496 1183.187256,1318.038696 
	C1183.938843,1318.068848 1184.674683,1318.492065 1185.823120,1318.863037 
	C1183.388428,1322.865967 1180.986572,1325.134644 1175.876465,1325.132202 
	C863.224060,1324.984863 550.571533,1325.000000 237.919006,1325.000000 
	C235.771317,1325.000000 233.623627,1325.000000 230.699554,1325.000000 
	C231.566284,1326.402954 231.936279,1327.451782 232.661224,1328.109253 
	C249.787827,1343.642822 266.479675,1359.703003 284.242401,1374.474854 
	C302.232056,1389.435181 320.765320,1403.871704 340.022888,1417.140991 
	C359.357544,1430.463257 379.658600,1442.440796 399.955933,1454.288452 
	C414.221771,1462.615356 429.019897,1470.088501 443.880157,1477.327393 
	C477.966003,1493.931274 513.253662,1507.694092 549.535522,1518.561523 
	C574.321472,1525.985474 599.567688,1531.986694 624.814819,1537.713013 
	C639.610718,1541.068970 654.766724,1542.992676 669.843201,1544.913696 
	C686.293884,1547.009766 702.841064,1548.347168 719.340088,1550.072388 
	C720.038879,1550.145386 720.677124,1550.797363 721.171753,1551.589844 
	C481.072968,1552.000000 241.145920,1552.000000 1.000000,1552.000000 
	C1.000000,1312.645874 1.000000,1073.291626 1.429932,833.500488 
	C2.239266,834.025024 2.876950,834.965332 2.957790,835.951233 
	C3.698209,844.981812 3.856553,854.088562 5.114410,863.042480 
	C7.774786,881.979980 10.144506,901.022949 14.186156,919.686523 
	C20.113523,947.057922 27.139973,974.203186 34.238701,1001.303223 
	C37.064747,1012.091919 41.333263,1022.502869 44.831837,1032.753906 
	C307.990814,1032.753906 570.242249,1032.753906 832.746704,1032.753906 
	C832.746704,994.240479 832.746704,955.972107 832.746704,917.534668 
	C699.039124,870.427368 565.263123,823.296021 430.117401,775.682007 
	C420.094452,861.644043 437.479004,941.392273 477.130127,1016.968445 
	C415.424622,943.020203 389.322723,857.024658 390.939270,761.501221 
	C265.855652,716.869629 140.881912,672.277283 15.444012,627.519348 
	C14.036252,634.417419 12.504542,640.728210 11.493003,647.121277 
	C9.192430,661.661316 6.978007,676.219604 5.065781,690.814697 
	C4.019373,698.801392 3.707183,706.882751 2.911232,714.906250 
	C2.836468,715.659973 1.663229,716.304688 1.000000,717.000000 
	C1.000000,478.405579 1.000000,239.811172 1.000000,1.000000 
	C243.687515,1.000000 486.375092,1.000000 729.531372,1.000000 
M64.980606,611.480774 
	C65.913803,611.775696 66.867142,612.018799 67.777260,612.372986 
	C95.718201,623.244995 123.629601,634.193481 151.600449,644.987976 
	C173.032898,653.259155 194.560501,661.283508 216.008255,669.515503 
	C245.822495,680.958557 275.605377,692.483215 305.394562,703.991516 
	C328.334656,712.853943 351.251526,721.776550 374.206726,730.599548 
	C379.497589,732.633118 384.902832,734.369019 390.981110,736.495789 
	C398.620850,670.025696 419.409546,608.889160 458.022400,553.990356 
	C347.554810,485.650848 237.387955,417.497437 126.955536,349.179718 
	C77.476921,425.641388 44.145599,507.887543 22.620729,595.354370 
	C36.895634,600.744812 50.590603,605.916260 64.980606,611.480774 
M396.638580,479.922180 
	C411.319122,489.672211 425.993683,499.431244 440.682190,509.169281 
	C451.431000,516.295410 462.266083,523.294617 472.907471,530.577209 
	C475.453644,532.319702 476.237366,532.013428 478.297791,529.644897 
	C486.988647,519.654724 495.868073,509.794617 505.203522,500.409088 
	C514.000061,491.565338 522.897278,482.655853 532.732544,475.044647 
	C555.351807,457.540253 579.092896,441.637054 604.878052,429.013611 
	C610.246216,426.385559 615.545776,423.617249 621.193970,420.752838 
	C615.016785,414.555969 609.118225,408.815948 603.418274,402.885071 
	C589.627930,388.535919 576.011047,374.019562 562.177002,359.713043 
	C538.889160,335.629852 515.483765,311.660339 492.134552,287.636414 
	C481.133728,276.317688 470.160248,264.972351 459.153381,253.659531 
	C446.227234,240.374023 433.283295,227.105759 420.337708,213.839157 
	C407.802521,200.993118 395.287750,188.126892 382.704285,175.328262 
	C370.554443,162.970581 358.015503,150.973969 346.329468,138.195068 
	C342.896240,134.440750 341.225311,135.050400 338.000031,137.402390 
	C325.057983,146.840195 312.053040,156.193405 298.989258,165.462173 
	C274.527924,182.817520 252.794769,203.361191 231.509308,224.291916 
	C217.212997,238.349960 203.963989,253.530884 190.908066,268.776062 
	C178.220123,283.591522 166.397018,299.146606 154.133743,314.328094 
	C152.629349,316.190460 152.647934,317.137421 154.839951,318.487091 
	C159.285126,321.224060 163.463684,324.389679 167.815445,327.283417 
	C189.566849,341.747345 211.360138,356.148407 233.097748,370.632996 
	C257.284576,386.749634 281.447540,402.902313 305.582275,419.096863 
	C322.268250,430.293335 338.847931,441.648438 355.551422,452.818512 
	C368.985748,461.802429 382.534485,470.615173 396.638580,479.922180 
M832.999573,899.151123 
	C832.999695,863.318665 832.941040,827.485962 833.103760,791.654236 
	C833.117798,788.556396 832.051880,786.789673 829.716370,785.308838 
	C818.544739,778.225586 807.396606,771.105103 796.204895,764.053833 
	C765.950317,744.992249 735.655273,725.994812 705.421143,706.901001 
	C687.744263,695.737549 670.186157,684.386230 652.516541,673.211243 
	C621.877625,653.833984 591.192017,634.530518 560.529297,615.190918 
	C544.372620,605.000549 528.205078,594.827026 512.092163,584.567749 
	C510.064209,583.276550 508.689087,583.277039 507.270142,585.314575 
	C503.538544,590.672913 499.564758,595.868042 495.964172,601.311279 
	C481.771515,622.767395 469.521027,645.244141 459.418427,668.956848 
	C448.570831,694.418274 440.890900,720.784241 435.265442,747.794678 
	C434.986023,749.136292 436.781433,751.885925 438.217499,752.458740 
	C453.352570,758.495972 468.609161,764.228638 483.836121,770.035095 
	C506.371490,778.628601 528.916809,787.196045 551.445435,795.807190 
	C574.584106,804.651611 597.710388,813.528687 620.837585,822.403137 
	C643.660522,831.160828 666.466675,839.962402 689.301086,848.689941 
	C708.632996,856.078979 728.009949,863.350281 747.339844,870.744446 
	C774.888855,881.282715 802.422852,891.860474 829.933167,902.499329 
	C832.772583,903.597351 833.101624,902.289917 832.999573,899.151123 
M346.501099,1103.000000 
	C342.002502,1103.000000 337.491974,1102.799561 333.009277,1103.066772 
	C329.734558,1103.261963 327.392426,1102.242188 325.221039,1099.805298 
	C320.375366,1094.367310 315.231567,1089.196289 310.335480,1083.801880 
	C305.395233,1078.358887 300.530487,1072.842651 295.773254,1067.239258 
	C290.436707,1060.953613 284.660065,1057.652832 275.513306,1057.717163 
	C203.376175,1058.226196 131.233841,1058.000000 59.093117,1058.000000 
	C57.151932,1058.000000 55.210743,1058.000000 52.430161,1058.000000 
	C53.352196,1060.202515 53.940750,1061.660034 54.568687,1063.100464 
	C59.198162,1073.718872 64.117279,1084.223145 68.348701,1094.997681 
	C70.393097,1100.203247 71.522141,1103.766846 78.857376,1104.481201 
	C92.948776,1105.853027 106.314278,1110.835449 118.881386,1117.886841 
	C143.022095,1131.432129 160.427979,1150.645752 169.770889,1176.786865 
	C170.944733,1180.071289 172.198212,1181.064087 175.526398,1181.062378 
	C315.309418,1180.989624 455.092499,1181.012451 594.875427,1180.883423 
	C597.014221,1180.881348 599.661377,1179.642090 601.203674,1178.108032 
	C609.102600,1170.251587 616.687988,1162.081055 624.436829,1154.072388 
	C635.924927,1142.198975 647.510132,1130.419189 658.946777,1118.496826 
	C663.577271,1113.669678 667.926025,1108.572266 672.941040,1103.000000 
	C563.969727,1103.000000 455.735199,1103.000000 346.501099,1103.000000 
M833.000000,714.500000 
	C833.000000,688.175964 833.071350,661.851318 832.875061,635.528748 
	C832.857910,633.227966 831.654724,630.375732 830.035339,628.732666 
	C811.031067,609.449707 791.843567,590.347229 772.700500,571.201050 
	C738.422485,536.917236 704.089111,502.688293 669.950806,468.265991 
	C666.836304,465.125580 664.150574,464.630157 660.434387,466.237122 
	C639.096741,475.463898 618.040222,485.360077 598.964111,498.704620 
	C584.091614,509.108551 569.581238,520.161743 555.827637,531.993042 
	C544.262329,541.941895 534.019714,553.428467 522.552429,564.872070 
	C626.571106,633.785583 729.373840,701.893555 833.000000,770.547058 
	C833.000000,751.635315 833.000000,733.567688 833.000000,714.500000 
z"/>
<path fill="#EE2722" opacity="1.000000" stroke="none" 
	d="
M1.000000,717.468628 
	C1.663229,716.304688 2.836468,715.659973 2.911232,714.906250 
	C3.707183,706.882751 4.019373,698.801392 5.065781,690.814697 
	C6.978007,676.219604 9.192430,661.661316 11.493003,647.121277 
	C12.504542,640.728210 14.036252,634.417419 15.444012,627.519348 
	C140.881912,672.277283 265.855652,716.869629 390.939270,761.501221 
	C389.322723,857.024658 415.424622,943.020203 477.130127,1016.968445 
	C437.479004,941.392273 420.094452,861.644043 430.117401,775.682007 
	C565.263123,823.296021 699.039124,870.427368 832.746704,917.534668 
	C832.746704,955.972107 832.746704,994.240479 832.746704,1032.753906 
	C570.242249,1032.753906 307.990814,1032.753906 44.831837,1032.753906 
	C41.333263,1022.502869 37.064747,1012.091919 34.238701,1001.303223 
	C27.139973,974.203186 20.113523,947.057922 14.186156,919.686523 
	C10.144506,901.022949 7.774786,881.979980 5.114410,863.042480 
	C3.856553,854.088562 3.698209,844.981812 2.957790,835.951233 
	C2.876950,834.965332 2.239266,834.025024 1.429932,833.031799 
	C1.000000,794.645752 1.000000,756.291565 1.000000,717.468628 
z"/>
<path fill="#000000" opacity="1.000000" stroke="none" 
	d="
M832.468628,1552.000000 
	C833.103149,1551.333862 834.154114,1550.202148 835.317383,1550.071655 
	C850.979492,1548.316406 866.658813,1546.714233 882.330933,1545.047119 
	C910.981873,1541.999512 939.113281,1536.113159 966.953186,1528.908081 
	C983.813843,1524.544434 1000.487122,1519.428955 1017.157898,1514.365479 
	C1050.322876,1504.292114 1082.141724,1490.847656 1113.421143,1475.976929 
	C1152.508789,1457.394043 1189.433838,1435.118164 1224.807495,1410.362061 
	C1243.709717,1397.133789 1262.063477,1382.918945 1279.398682,1367.706543 
	C1300.701050,1349.012573 1321.450562,1329.545776 1341.003540,1309.043823 
	C1358.220093,1290.991577 1374.295044,1271.686401 1389.358032,1251.786621 
	C1407.294067,1228.091187 1424.788574,1203.891479 1440.292236,1178.573853 
	C1455.031982,1154.503418 1467.298828,1128.881836 1480.034790,1103.630493 
	C1495.860107,1072.254150 1507.635132,1039.234009 1518.090088,1005.733398 
	C1526.791016,977.852417 1533.854858,949.562134 1538.975220,920.808594 
	C1541.840088,904.720215 1544.666992,888.610107 1546.851562,872.420776 
	C1548.456299,860.528870 1549.050293,848.497253 1549.976074,836.518677 
	C1550.459595,830.260193 1550.654663,823.979614 1551.075073,817.715454 
	C1551.122314,817.012024 1551.789551,816.350098 1552.584717,815.834473 
	C1553.000000,1061.259644 1553.000000,1306.519409 1553.000000,1552.000000 
	C1312.979126,1552.000000 1072.958252,1552.000000 832.468628,1552.000000 
z"/>
<path fill="#000000" opacity="1.000000" stroke="none" 
	d="
M1553.000000,748.531372 
	C1552.334351,748.061340 1551.133667,747.148926 1551.085938,746.179810 
	C1550.614624,736.585693 1550.677612,726.954590 1549.912842,717.388123 
	C1548.958740,705.453857 1547.510010,693.552490 1546.010620,681.670227 
	C1544.515259,669.820374 1543.106201,657.934875 1540.923340,646.201965 
	C1537.135986,625.845398 1533.648193,605.368896 1528.441284,585.357239 
	C1522.171997,561.262451 1515.089355,537.299438 1506.782837,513.837402 
	C1498.795166,491.275696 1489.144531,469.274658 1479.592651,447.301910 
	C1467.314941,419.058655 1452.278442,392.184631 1435.849121,366.203156 
	C1422.855835,345.655640 1408.925659,325.635620 1394.362671,306.165741 
	C1382.080322,289.744965 1368.722046,274.066010 1355.047974,258.766357 
	C1340.903931,242.940750 1326.424072,227.312027 1310.992310,212.762650 
	C1281.468628,184.927002 1250.417236,158.814499 1216.242310,136.753662 
	C1195.398438,123.298340 1174.281860,110.238098 1152.922363,97.618965 
	C1139.830933,89.884697 1126.324219,82.722855 1112.520020,76.352531 
	C1081.864868,62.205811 1050.754639,49.115005 1018.479309,38.978100 
	C985.640076,28.664068 952.472778,19.668655 918.484863,14.018492 
	C902.839722,11.417624 887.152832,8.967957 871.408142,7.094287 
	C856.226746,5.287652 840.945374,4.323899 825.713501,2.929437 
	C825.003906,2.864479 824.348267,2.209648 823.833740,1.414768 
	C1066.928101,1.000000 1309.856079,1.000000 1553.000000,1.000000 
	C1553.000000,250.020859 1553.000000,499.041779 1553.000000,748.531372 
z"/>
<path fill="#EE2722" opacity="1.000000" stroke="none" 
	d="
M64.633087,611.284302 
	C50.590603,605.916260 36.895634,600.744812 22.620729,595.354370 
	C44.145599,507.887543 77.476921,425.641388 126.955536,349.179718 
	C237.387955,417.497437 347.554810,485.650848 458.022400,553.990356 
	C419.409546,608.889160 398.620850,670.025696 390.981110,736.495789 
	C384.902832,734.369019 379.497589,732.633118 374.206726,730.599548 
	C351.251526,721.776550 328.334656,712.853943 305.394562,703.991516 
	C275.605377,692.483215 245.822495,680.958557 216.008255,669.515503 
	C194.560501,661.283508 173.032898,653.259155 151.600449,644.987976 
	C123.629601,634.193481 95.718201,623.244995 67.777260,612.372986 
	C66.867142,612.018799 65.913803,611.775696 64.633087,611.284302 
z"/>
<path fill="#EE2722" opacity="1.000000" stroke="none" 
	d="
M396.335510,479.713013 
	C382.534485,470.615173 368.985748,461.802429 355.551422,452.818512 
	C338.847931,441.648438 322.268250,430.293335 305.582275,419.096863 
	C281.447540,402.902313 257.284576,386.749634 233.097748,370.632996 
	C211.360138,356.148407 189.566849,341.747345 167.815445,327.283417 
	C163.463684,324.389679 159.285126,321.224060 154.839951,318.487091 
	C152.647934,317.137421 152.629349,316.190460 154.133743,314.328094 
	C166.397018,299.146606 178.220123,283.591522 190.908066,268.776062 
	C203.963989,253.530884 217.212997,238.349960 231.509308,224.291916 
	C252.794769,203.361191 274.527924,182.817520 298.989258,165.462173 
	C312.053040,156.193405 325.057983,146.840195 338.000031,137.402390 
	C341.225311,135.050400 342.896240,134.440750 346.329468,138.195068 
	C358.015503,150.973969 370.554443,162.970581 382.704285,175.328262 
	C395.287750,188.126892 407.802521,200.993118 420.337708,213.839157 
	C433.283295,227.105759 446.227234,240.374023 459.153381,253.659531 
	C470.160248,264.972351 481.133728,276.317688 492.134552,287.636414 
	C515.483765,311.660339 538.889160,335.629852 562.177002,359.713043 
	C576.011047,374.019562 589.627930,388.535919 603.418274,402.885071 
	C609.118225,408.815948 615.016785,414.555969 621.193970,420.752838 
	C615.545776,423.617249 610.246216,426.385559 604.878052,429.013611 
	C579.092896,441.637054 555.351807,457.540253 532.732544,475.044647 
	C522.897278,482.655853 514.000061,491.565338 505.203522,500.409088 
	C495.868073,509.794617 486.988647,519.654724 478.297791,529.644897 
	C476.237366,532.013428 475.453644,532.319702 472.907471,530.577209 
	C462.266083,523.294617 451.431000,516.295410 440.682190,509.169281 
	C425.993683,499.431244 411.319122,489.672211 396.335510,479.713013 
z"/>
<path fill="#EE2722" opacity="1.000000" stroke="none" 
	d="
M832.998657,899.608093 
	C833.101624,902.289917 832.772583,903.597351 829.933167,902.499329 
	C802.422852,891.860474 774.888855,881.282715 747.339844,870.744446 
	C728.009949,863.350281 708.632996,856.078979 689.301086,848.689941 
	C666.466675,839.962402 643.660522,831.160828 620.837585,822.403137 
	C597.710388,813.528687 574.584106,804.651611 551.445435,795.807190 
	C528.916809,787.196045 506.371490,778.628601 483.836121,770.035095 
	C468.609161,764.228638 453.352570,758.495972 438.217499,752.458740 
	C436.781433,751.885925 434.986023,749.136292 435.265442,747.794678 
	C440.890900,720.784241 448.570831,694.418274 459.418427,668.956848 
	C469.521027,645.244141 481.771515,622.767395 495.964172,601.311279 
	C499.564758,595.868042 503.538544,590.672913 507.270142,585.314575 
	C508.689087,583.277039 510.064209,583.276550 512.092163,584.567749 
	C528.205078,594.827026 544.372620,605.000549 560.529297,615.190918 
	C591.192017,634.530518 621.877625,653.833984 652.516541,673.211243 
	C670.186157,684.386230 687.744263,695.737549 705.421143,706.901001 
	C735.655273,725.994812 765.950317,744.992249 796.204895,764.053833 
	C807.396606,771.105103 818.544739,778.225586 829.716370,785.308838 
	C832.051880,786.789673 833.117798,788.556396 833.103760,791.654236 
	C832.941040,827.485962 832.999695,863.318665 832.998657,899.608093 
z"/>
<path fill="#EE2722" opacity="1.000000" stroke="none" 
	d="
M347.000885,1103.000000 
	C455.735199,1103.000000 563.969727,1103.000000 672.941040,1103.000000 
	C667.926025,1108.572266 663.577271,1113.669678 658.946777,1118.496826 
	C647.510132,1130.419189 635.924927,1142.198975 624.436829,1154.072388 
	C616.687988,1162.081055 609.102600,1170.251587 601.203674,1178.108032 
	C599.661377,1179.642090 597.014221,1180.881348 594.875427,1180.883423 
	C455.092499,1181.012451 315.309418,1180.989624 175.526398,1181.062378 
	C172.198212,1181.064087 170.944733,1180.071289 169.770889,1176.786865 
	C160.427979,1150.645752 143.022095,1131.432129 118.881386,1117.886841 
	C106.314278,1110.835449 92.948776,1105.853027 78.857376,1104.481201 
	C71.522141,1103.766846 70.393097,1100.203247 68.348701,1094.997681 
	C64.117279,1084.223145 59.198162,1073.718872 54.568687,1063.100464 
	C53.940750,1061.660034 53.352196,1060.202515 52.430161,1058.000000 
	C55.210743,1058.000000 57.151932,1058.000000 59.093117,1058.000000 
	C131.233841,1058.000000 203.376175,1058.226196 275.513306,1057.717163 
	C284.660065,1057.652832 290.436707,1060.953613 295.773254,1067.239258 
	C300.530487,1072.842651 305.395233,1078.358887 310.335480,1083.801880 
	C315.231567,1089.196289 320.375366,1094.367310 325.221039,1099.805298 
	C327.392426,1102.242188 329.734558,1103.261963 333.009277,1103.066772 
	C337.491974,1102.799561 342.002502,1103.000000 347.000885,1103.000000 
z"/>
<path fill="#EE2722" opacity="1.000000" stroke="none" 
	d="
M833.000000,715.000000 
	C833.000000,733.567688 833.000000,751.635315 833.000000,770.547058 
	C729.373840,701.893555 626.571106,633.785583 522.552429,564.872070 
	C534.019714,553.428467 544.262329,541.941895 555.827637,531.993042 
	C569.581238,520.161743 584.091614,509.108551 598.964111,498.704620 
	C618.040222,485.360077 639.096741,475.463898 660.434387,466.237122 
	C664.150574,464.630157 666.836304,465.125580 669.950806,468.265991 
	C704.089111,502.688293 738.422485,536.917236 772.700500,571.201050 
	C791.843567,590.347229 811.031067,609.449707 830.035339,628.732666 
	C831.654724,630.375732 832.857910,633.227966 832.875061,635.528748 
	C833.071350,661.851318 833.000000,688.175964 833.000000,715.000000 
z"/>
</svg>